<?xml version="1.0" encoding="UTF-8" standalone="no"?>
<svg
   version="1.1"
   width="70"
   height="50"
   viewBox="0 0 256 170"
   xml:space="preserve"
   id="svg14"
   xmlns="http://www.w3.org/2000/svg"
   xmlns:svg="http://www.w3.org/2000/svg">
<defs
   id="defs2">
</defs>
<g
   style="opacity:1;fill:#83adc9;fill-opacity:1;fill-rule:nonzero;stroke:#000000;stroke-width:0.355872;stroke-linecap:butt;stroke-linejoin:miter;stroke-miterlimit:10;stroke-dasharray:none;stroke-opacity:1"
   transform="matrix(2.81,0,0,2.81,2.035586,-45.138861)"
   id="g12">
	<path
   d="m 76.958,72.259 c -0.558,0 -1.116,-0.133 -1.629,-0.402 L 61.518,64.596 47.707,71.857 c -1.179,0.62 -2.607,0.518 -3.686,-0.266 -1.078,-0.783 -1.618,-2.11 -1.393,-3.424 L 45.265,52.788 34.092,41.898 c -0.954,-0.931 -1.297,-2.321 -0.886,-3.588 0.412,-1.268 1.507,-2.191 2.825,-2.383 l 15.441,-2.244 6.905,-13.992 c 0.59,-1.195 1.807,-1.951 3.139,-1.951 1.332,0 2.549,0.756 3.139,1.951 L 71.56,33.683 87,35.927 c 1.319,0.191 2.414,1.115 2.826,2.383 0.411,1.267 0.068,2.657 -0.886,3.588 l -11.17,10.89 2.638,15.379 c 0.226,1.313 -0.314,2.641 -1.392,3.423 -0.611,0.443 -1.332,0.669 -2.058,0.669 z m -32.9,-30.424 7.413,7.225 c 0.824,0.805 1.201,1.963 1.006,3.099 L 50.728,62.36 59.89,57.544 c 1.02,-0.537 2.238,-0.537 3.258,0 L 72.31,62.36 70.56,52.158 c -0.195,-1.136 0.182,-2.294 1.006,-3.099 L 78.979,41.834 68.736,40.346 C 67.595,40.18 66.61,39.464 66.1,38.431 l -4.581,-9.282 -4.581,9.282 c -0.51,1.033 -1.495,1.749 -2.636,1.915 z"
   style="opacity:1;fill:#83adc9;fill-opacity:1;fill-rule:nonzero;stroke:#000000;stroke-width:0.355872;stroke-linecap:butt;stroke-linejoin:miter;stroke-miterlimit:10;stroke-dasharray:none;stroke-opacity:1"
   stroke-linecap="round"
   id="path4" />
	<path
   d="M 26.121,48.5 H 3.5 C 1.567,48.5 0,46.933 0,45 0,43.067 1.567,41.5 3.5,41.5 h 22.621 c 1.933,0 3.5,1.567 3.5,3.5 0,1.933 -1.567,3.5 -3.5,3.5 z"
   style="opacity:1;fill:#83adc9;fill-opacity:1;fill-rule:nonzero;stroke:#000000;stroke-width:0.355872;stroke-linecap:butt;stroke-linejoin:miter;stroke-miterlimit:10;stroke-dasharray:none;stroke-opacity:1"
   stroke-linecap="round"
   id="path6" />
	<path
   d="M 40.544,29.986 H 3.5 c -1.933,0 -3.5,-1.567 -3.5,-3.5 0,-1.933 1.567,-3.5 3.5,-3.5 h 37.044 c 1.933,0 3.5,1.567 3.5,3.5 0,1.933 -1.567,3.5 -3.5,3.5 z"
   style="opacity:1;fill:#83adc9;fill-opacity:1;fill-rule:nonzero;stroke:#000000;stroke-width:0.355872;stroke-linecap:butt;stroke-linejoin:miter;stroke-miterlimit:10;stroke-dasharray:none;stroke-opacity:1"
   stroke-linecap="round"
   id="path8" />
	<path
   d="M 34.82,67.014 H 3.5 c -1.933,0 -3.5,-1.567 -3.5,-3.5 0,-1.933 1.567,-3.5 3.5,-3.5 h 31.32 c 1.933,0 3.5,1.567 3.5,3.5 0,1.933 -1.567,3.5 -3.5,3.5 z"
   style="opacity:1;fill:#83adc9;fill-opacity:1;fill-rule:nonzero;stroke:#000000;stroke-width:0.355872;stroke-linecap:butt;stroke-linejoin:miter;stroke-miterlimit:10;stroke-dasharray:none;stroke-opacity:1"
   stroke-linecap="round"
   id="path10" />
</g>
</svg>
