<?xml version="1.0" encoding="UTF-8" standalone="no"?>
<svg
   id="Layer_1"
   data-name="Layer 1"
   width="50"
   height="50"
   viewBox="0 0 122.88 107.3"
   version="1.1"
   xmlns="http://www.w3.org/2000/svg"
   xmlns:svg="http://www.w3.org/2000/svg">
  <defs
     id="defs9" />
  <title
     id="title2">wishlist</title>
  <path
     id="path4"
     style="fill:#83adc9;fill-opacity:1;stroke:#000000;stroke-width:0.972325;stroke-opacity:1"
     d="m 7.8320312,1.6992188 a 6.9035107,6.9035107 0 0 0 -4.8515624,2.0625 6.8646177,6.8646177 0 0 0 -2.04101568,4.8613281 V 94.654297 a 6.9035107,6.9035107 0 0 0 2.03124998,4.861328 6.8937875,6.8937875 0 0 0 4.8613281,2.042965 H 62.224609 a 2.9755859,2.9755859 0 0 0 0,-5.951168 L 7.8417969,95.597656 A 0.97232545,0.97232545 0 0 1 7.1621094,95.314453 0.97232545,0.97232545 0 0 1 6.8691406,94.634766 V 8.6230469 A 0.97232545,0.97232545 0 0 1 7.1523438,7.9414062 0.97232545,0.97232545 0 0 1 7.8320312,7.6503906 H 89.974609 a 0.97232545,0.97232545 0 0 1 0.681641,0.2910156 l 0.07617,0.078125 a 0.97232545,0.97232545 0 0 1 0.214844,0.6035157 V 49.34375 a 2.975586,2.975586 0 0 0 5.951172,0 V 8.6230469 A 6.9618502,6.9618502 0 0 0 95.070312,3.9550781 L 94.865234,3.7324219 A 6.9035107,6.9035107 0 0 0 90.003906,1.6992188 Z M 24.03125,25.619141 a 3.5198181,3.5198181 0 0 0 -3.519531,3.519531 3.5198181,3.5198181 0 1 0 3.519531,-3.519531 z m 14.302734,0.52539 a 2.7711275,2.7711275 0 0 0 -2.498046,2.97461 2.7614043,2.7614043 0 0 0 2.498046,2.966797 h 33.001954 a 2.7614043,2.7614043 0 0 0 2.498046,-2.966797 2.7711275,2.7711275 0 0 0 -2.546875,-2.97461 z M 24.03125,46.427734 A 3.5198181,3.5198181 0 0 0 20.511719,49.9375 3.5198181,3.5198181 0 1 0 24.03125,46.427734 Z m 14.302734,0.806641 a 3.0142089,3.0142089 0 0 0 0,5.939453 h 23.423828 a 3.0142089,3.0142089 0 0 0 0,-5.939453 z m 68.410156,12.625 c -0.61272,-0.01466 -1.23123,0.01093 -1.85352,0.08203 -5.34778,0.612565 -7.73961,3.7149 -11.181636,7.3125 -4.112932,-4.025424 -6.797205,-7.176162 -13.146484,-7.263672 -7.097969,-0.08751 -13.272251,4.969452 -13,12.748047 0.437546,11.162286 12.534374,20.185487 19.972656,27.341799 l 6.183594,5.95117 7.47656,-7.419922 c 2.78085,-2.722509 6.66968,-6.310899 10.19922,-9.976562 3.2184,-3.335073 6.13514,-6.737069 7.56445,-9.595704 4.72185,-9.407238 -3.0241,-18.959738 -12.21484,-19.179687 z m -82.71289,7.355469 a 3.5198181,3.5198181 0 0 0 -3.519531,3.519531 3.5198181,3.5198181 0 1 0 3.519531,-3.480469 z m 14.302734,1.089844 a 3.0628252,3.0628252 0 0 0 0,6.017578 h 11.47461 a 3.0628252,3.0628252 0 0 0 0,-6.017578 z" />
</svg>
